<svg width="203" height="33" viewBox="0 0 203 33" fill="none" xmlns="http://www.w3.org/2000/svg">
<path d="M7.28288 13.102C7.28288 14.302 7.52288 15.394 8.00288 16.378C8.49488 17.35 9.17888 18.124 10.0549 18.7C10.9309 19.276 11.9509 19.564 13.1149 19.564C14.2789 19.564 15.2989 19.276 16.1749 18.7C17.0509 18.124 17.7289 17.35 18.2089 16.378C18.7009 15.394 18.9469 14.302 18.9469 13.102C18.9469 11.902 18.7009 10.816 18.2089 9.844C17.7289 8.872 17.0509 8.098 16.1749 7.522C15.2989 6.934 14.2789 6.64 13.1149 6.64C11.9509 6.64 10.9309 6.934 10.0549 7.522C9.17888 8.098 8.49488 8.872 8.00288 9.844C7.52288 10.816 7.28288 11.902 7.28288 13.102ZM0.748875 13.102C0.748875 11.374 1.06088 9.766 1.68488 8.278C2.30888 6.778 3.17888 5.47 4.29488 4.354C5.41088 3.238 6.71888 2.368 8.21888 1.744C9.73088 1.12 11.3629 0.807998 13.1149 0.807998C14.8909 0.807998 16.5289 1.12 18.0289 1.744C19.5289 2.368 20.8369 3.238 21.9529 4.354C23.0689 5.47 23.9329 6.778 24.5449 8.278C25.1569 9.766 25.4629 11.374 25.4629 13.102C25.4629 14.842 25.1629 16.462 24.5629 17.962C23.9629 19.45 23.1109 20.758 22.0069 21.886C20.9149 23.002 19.6129 23.872 18.1009 24.496C16.5889 25.12 14.9269 25.432 13.1149 25.432C11.2429 25.432 9.55088 25.12 8.03888 24.496C6.52688 23.872 5.22488 23.002 4.13288 21.886C3.05288 20.758 2.21888 19.45 1.63088 17.962C1.04288 16.462 0.748875 14.842 0.748875 13.102ZM49.7269 9.79C50.8549 9.79 51.8569 10.018 52.7329 10.474C53.6209 10.93 54.3169 11.638 54.8209 12.598C55.3369 13.546 55.5949 14.776 55.5949 16.288V25H49.3309V17.188C49.3309 16.372 49.1989 15.682 48.9349 15.118C48.6829 14.554 48.1429 14.272 47.3149 14.272C46.7869 14.272 46.3429 14.404 45.9829 14.668C45.6229 14.932 45.3529 15.286 45.1729 15.73C45.0049 16.162 44.9209 16.648 44.9209 17.188V25H39.0889V17.188C39.0889 16.372 38.9569 15.682 38.6929 15.118C38.4409 14.554 37.9069 14.272 37.0909 14.272C36.5629 14.272 36.1189 14.404 35.7589 14.668C35.3989 14.92 35.1289 15.268 34.9489 15.712C34.7689 16.144 34.6789 16.636 34.6789 17.188V25H28.3609V10.222H34.6789V12.274C34.8229 11.902 35.1469 11.524 35.6509 11.14C36.1669 10.756 36.7849 10.438 37.5049 10.186C38.2369 9.922 38.9989 9.79 39.7909 9.79C40.6669 9.79 41.3929 9.898 41.9689 10.114C42.5569 10.33 43.0429 10.636 43.4269 11.032C43.8229 11.428 44.1529 11.884 44.4169 12.4C44.5849 12.004 44.9209 11.608 45.4249 11.212C45.9289 10.804 46.5589 10.468 47.3149 10.204C48.0709 9.928 48.8749 9.79 49.7269 9.79ZM69.2228 9.79C70.2908 9.79 71.3288 10 72.3368 10.42C73.3448 10.84 74.1728 11.512 74.8208 12.436C75.4808 13.36 75.8108 14.566 75.8108 16.054V25H69.4208V17.08C69.4208 16.18 69.2048 15.49 68.7728 15.01C68.3408 14.518 67.7648 14.272 67.0448 14.272C66.5768 14.272 66.1388 14.392 65.7308 14.632C65.3228 14.872 64.9928 15.208 64.7408 15.64C64.5008 16.072 64.3808 16.576 64.3808 17.152V25H58.0088V10.222H64.3808V12.22C64.5368 11.824 64.8428 11.446 65.2988 11.086C65.7548 10.714 66.3248 10.408 67.0088 10.168C67.6928 9.916 68.4308 9.79 69.2228 9.79ZM78.7792 25V10.222H85.1332V25H78.7792ZM82.0372 7.954C81.0652 7.954 80.2372 7.612 79.5532 6.928C78.8812 6.244 78.5452 5.428 78.5452 4.48C78.5452 3.532 78.8812 2.71 79.5532 2.014C80.2372 1.318 81.0652 0.969999 82.0372 0.969999C82.6732 0.969999 83.2552 1.132 83.7832 1.456C84.3112 1.768 84.7372 2.188 85.0612 2.716C85.3852 3.244 85.5472 3.832 85.5472 4.48C85.5472 5.428 85.1992 6.244 84.5032 6.928C83.8192 7.612 82.9972 7.954 82.0372 7.954ZM97.6221 0.807998C99.1221 0.807998 100.448 0.975998 101.6 1.312C102.764 1.636 103.7 1.984 104.408 2.356C105.116 2.716 105.548 2.956 105.704 3.076L102.716 8.116C102.524 7.96 102.194 7.75 101.726 7.486C101.258 7.222 100.718 6.988 100.106 6.784C99.5061 6.568 98.9061 6.46 98.3061 6.46C97.5381 6.46 96.9081 6.586 96.4161 6.838C95.9361 7.078 95.6961 7.456 95.6961 7.972C95.6961 8.332 95.8281 8.656 96.0921 8.944C96.3561 9.232 96.7761 9.52 97.3521 9.808C97.9401 10.096 98.7141 10.408 99.6741 10.744C100.574 11.056 101.408 11.434 102.176 11.878C102.956 12.322 103.634 12.85 104.21 13.462C104.786 14.074 105.236 14.776 105.56 15.568C105.896 16.36 106.064 17.254 106.064 18.25C106.064 19.522 105.8 20.614 105.272 21.526C104.756 22.426 104.054 23.164 103.166 23.74C102.29 24.316 101.3 24.742 100.196 25.018C99.0921 25.294 97.9641 25.432 96.8121 25.432C95.1081 25.432 93.5841 25.246 92.2401 24.874C90.9081 24.49 89.8281 24.076 89.0001 23.632C88.1841 23.188 87.6921 22.882 87.5241 22.714L90.6021 17.476C90.7341 17.584 91.0161 17.758 91.4481 17.998C91.8801 18.238 92.3961 18.49 92.9961 18.754C93.6081 19.018 94.2501 19.24 94.9221 19.42C95.5941 19.6 96.2301 19.69 96.8301 19.69C97.7421 19.69 98.4201 19.54 98.8641 19.24C99.3081 18.928 99.5301 18.502 99.5301 17.962C99.5301 17.566 99.3921 17.212 99.1161 16.9C98.8401 16.576 98.3901 16.258 97.7661 15.946C97.1421 15.622 96.3081 15.262 95.2641 14.866C94.2321 14.47 93.2601 13.978 92.3481 13.39C91.4481 12.79 90.7101 12.022 90.1341 11.086C89.5701 10.15 89.2881 8.986 89.2881 7.594C89.2881 6.19 89.6781 4.984 90.4581 3.976C91.2501 2.956 92.2821 2.176 93.5541 1.636C94.8261 1.084 96.1821 0.807998 97.6221 0.807998ZM107.874 10.222H110.25V4.156H116.55V10.222H119.682V15.424H116.55V18.304C116.55 18.82 116.616 19.264 116.748 19.636C116.892 19.996 117.192 20.176 117.648 20.176C117.924 20.176 118.17 20.116 118.386 19.996C118.602 19.864 118.734 19.774 118.782 19.726L120.906 24.226C120.81 24.298 120.516 24.436 120.024 24.64C119.544 24.832 118.932 25.012 118.188 25.18C117.456 25.348 116.64 25.432 115.74 25.432C114.144 25.432 112.83 24.994 111.798 24.118C110.766 23.23 110.25 21.868 110.25 20.032V15.424H107.874V10.222ZM130.625 19.528L134.243 10.222H140.471L130.229 32.488H123.875L127.313 25L121.121 10.222H127.439L130.625 19.528ZM148.252 25H141.862V0.231999H148.252V25ZM156.683 18.898C156.731 19.294 156.887 19.642 157.151 19.942C157.427 20.23 157.787 20.458 158.231 20.626C158.687 20.782 159.221 20.86 159.833 20.86C160.433 20.86 160.997 20.818 161.525 20.734C162.053 20.638 162.521 20.512 162.929 20.356C163.349 20.2 163.679 20.026 163.919 19.834L166.277 23.794C166.013 24.022 165.617 24.262 165.089 24.514C164.561 24.766 163.835 24.982 162.911 25.162C161.999 25.342 160.829 25.432 159.401 25.432C157.745 25.432 156.257 25.138 154.937 24.55C153.617 23.962 152.573 23.08 151.805 21.904C151.037 20.716 150.653 19.234 150.653 17.458C150.653 16.018 150.977 14.722 151.625 13.57C152.273 12.406 153.209 11.488 154.433 10.816C155.657 10.132 157.139 9.79 158.879 9.79C160.547 9.79 161.993 10.084 163.217 10.672C164.441 11.248 165.383 12.124 166.043 13.3C166.703 14.476 167.033 15.964 167.033 17.764C167.033 17.86 167.027 18.052 167.015 18.34C167.015 18.628 167.003 18.814 166.979 18.898H156.683ZM161.039 16.018C161.027 15.622 160.937 15.268 160.769 14.956C160.613 14.644 160.385 14.398 160.085 14.218C159.785 14.038 159.419 13.948 158.987 13.948C158.567 13.948 158.195 14.032 157.871 14.2C157.547 14.368 157.295 14.608 157.115 14.92C156.935 15.22 156.833 15.586 156.809 16.018H161.039Z" fill="white"/>
<path d="M181.158 17.656C181.158 19.288 180.828 20.686 180.168 21.85C179.52 23.014 178.608 23.902 177.432 24.514C176.256 25.126 174.888 25.432 173.328 25.432C172.248 25.432 171.294 25.294 170.466 25.018C169.638 24.754 168.972 24.466 168.468 24.154C167.964 23.83 167.658 23.596 167.55 23.452L169.818 17.998C169.974 18.202 170.178 18.412 170.43 18.628C170.682 18.832 170.976 19.012 171.312 19.168C171.648 19.312 172.002 19.384 172.374 19.384C172.77 19.384 173.16 19.306 173.544 19.15C173.928 18.994 174.246 18.7 174.498 18.268C174.75 17.824 174.876 17.188 174.876 16.36V1.24H181.158V17.656ZM193.81 0.807998C195.31 0.807998 196.636 0.975998 197.788 1.312C198.952 1.636 199.888 1.984 200.596 2.356C201.304 2.716 201.736 2.956 201.892 3.076L198.904 8.116C198.712 7.96 198.382 7.75 197.914 7.486C197.446 7.222 196.906 6.988 196.294 6.784C195.694 6.568 195.094 6.46 194.494 6.46C193.726 6.46 193.096 6.586 192.604 6.838C192.124 7.078 191.884 7.456 191.884 7.972C191.884 8.332 192.016 8.656 192.28 8.944C192.544 9.232 192.964 9.52 193.54 9.808C194.128 10.096 194.902 10.408 195.862 10.744C196.762 11.056 197.596 11.434 198.364 11.878C199.144 12.322 199.822 12.85 200.398 13.462C200.974 14.074 201.424 14.776 201.748 15.568C202.084 16.36 202.252 17.254 202.252 18.25C202.252 19.522 201.988 20.614 201.46 21.526C200.944 22.426 200.242 23.164 199.354 23.74C198.478 24.316 197.488 24.742 196.384 25.018C195.28 25.294 194.152 25.432 193 25.432C191.296 25.432 189.772 25.246 188.428 24.874C187.096 24.49 186.016 24.076 185.188 23.632C184.372 23.188 183.88 22.882 183.712 22.714L186.79 17.476C186.922 17.584 187.204 17.758 187.636 17.998C188.068 18.238 188.584 18.49 189.184 18.754C189.796 19.018 190.438 19.24 191.11 19.42C191.782 19.6 192.418 19.69 193.018 19.69C193.93 19.69 194.608 19.54 195.052 19.24C195.496 18.928 195.718 18.502 195.718 17.962C195.718 17.566 195.58 17.212 195.304 16.9C195.028 16.576 194.578 16.258 193.954 15.946C193.33 15.622 192.496 15.262 191.452 14.866C190.42 14.47 189.448 13.978 188.536 13.39C187.636 12.79 186.898 12.022 186.322 11.086C185.758 10.15 185.476 8.986 185.476 7.594C185.476 6.19 185.866 4.984 186.646 3.976C187.438 2.956 188.47 2.176 189.742 1.636C191.014 1.084 192.37 0.807998 193.81 0.807998Z" fill="#EFD81D"/>
</svg>
